PathFileType  4	(X/Y/Z) C:\Users\wagnerel85475\Documents\Thesis\opencap-core\Data\3375ffbc-daeb-4a43-b4f7-ac9899cd4c71\MarkerData\PreAugmentation
DataRate	CameraRate	NumFrames	NumMarkers	Units	OrigDataRate	OrigDataStartFrame	OrigNumFrames
60.0	60.0	9	20	m	60.0	196	780
Frame#	Time	Neck			RShoulder			RElbow			RWrist			LShoulder			LElbow			LWrist			midHip			RHip			RKnee			RAnkle			LHip			LKnee			LAnkle			LBigToe			LSmallToe			LHeel			RBigToe			RSmallToe			RHeel			
		X1	Y1	Z1	X2	Y2	Z2	X3	Y3	Z3	X4	Y4	Z4	X5	Y5	Z5	X6	Y6	Z6	X7	Y7	Z7	X8	Y8	Z8	X9	Y9	Z9	X10	Y10	Z10	X11	Y11	Z11	X12	Y12	Z12	X13	Y13	Z13	X14	Y14	Z14	X15	Y15	Z15	X16	Y16	Z16	X17	Y17	Z17	X18	Y18	Z18	X19	Y19	Z19	X20	Y20	Z20	

196	3.2500000	-0.7666700	1.3573200	-0.0545200	-0.7822300	1.3611200	0.1486800	-0.8342900	1.0451800	0.2089400	-0.7209900	0.7550900	0.2454900	-0.7749000	1.3567300	-0.2416300	-0.8508400	1.0461400	-0.2948700	-0.7228300	0.7460200	-0.3176000	-0.6979700	0.8023900	-0.0334300	-0.7189300	0.8028400	0.0894200	-0.7574000	0.3140000	0.0911200	-0.8389400	-0.1816100	0.1413600	-0.7441500	0.7983100	-0.1571000	-0.7644400	0.3143300	-0.1513800	-0.8618400	-0.1896800	-0.1906700	-0.6033600	-0.2387100	-0.2613200	-0.6950100	-0.2511900	-0.3016700	-0.8780400	-0.2456100	-0.1741800	-0.6032400	-0.2324300	0.2023400	-0.6941500	-0.2332400	0.2490100	-0.9287500	-0.2414000	0.1109400
197	3.2666667	-0.7666600	1.3573200	-0.0545200	-0.7825700	1.3611400	0.1488200	-0.8339100	1.0452000	0.2090400	-0.7209400	0.7550600	0.2454800	-0.7748900	1.3567300	-0.2416200	-0.8508400	1.0461400	-0.2948700	-0.7226300	0.7447900	-0.3176400	-0.6914500	0.8029800	-0.0317200	-0.7188900	0.8031200	0.0894000	-0.7574600	0.3139700	0.0911500	-0.8389500	-0.1816200	0.1413700	-0.7441000	0.7985700	-0.1571000	-0.7656000	0.3141900	-0.1519300	-0.8619700	-0.1899900	-0.1906300	-0.6031400	-0.2388900	-0.2613700	-0.6950100	-0.2512300	-0.3016600	-0.8779600	-0.2455400	-0.1741900	-0.6033000	-0.2324300	0.2023400	-0.6941600	-0.2332800	0.2490100	-0.9287600	-0.2414000	0.1109400
198	3.2833333	-0.7666500	1.3573300	-0.0545200	-0.7830200	1.3611800	0.1490000	-0.8338900	1.0451800	0.2090500	-0.7208800	0.7550300	0.2454700	-0.7748700	1.3567500	-0.2416200	-0.8508600	1.0461800	-0.2948700	-0.7223100	0.7429200	-0.3176700	-0.6869600	0.8033500	-0.0305500	-0.7188800	0.8028600	0.0894100	-0.7575500	0.3139200	0.0911900	-0.8389600	-0.1816300	0.1413800	-0.7441300	0.7984300	-0.1570800	-0.7689000	0.3137000	-0.1529100	-0.8625300	-0.1913500	-0.1904700	-0.6035400	-0.2399900	-0.2612100	-0.6950700	-0.2511800	-0.3016600	-0.8774600	-0.2455100	-0.1740500	-0.6033300	-0.2324400	0.2023500	-0.6941700	-0.2332800	0.2490200	-0.9287600	-0.2414100	0.1109500
199	3.3000000	-0.7666500	1.3573400	-0.0545200	-0.7820400	1.3611600	0.1486100	-0.8339500	1.0451700	0.2090400	-0.7208600	0.7550000	0.2454500	-0.7748800	1.3567500	-0.2416200	-0.8508900	1.0461800	-0.2948700	-0.7221500	0.7415400	-0.3176800	-0.6859000	0.8034300	-0.0303000	-0.7188100	0.8032800	0.0893800	-0.7576000	0.3139100	0.0912100	-0.8389600	-0.1816300	0.1413900	-0.7441300	0.7982900	-0.1570700	-0.7723500	0.3130700	-0.1529900	-0.8634200	-0.1934000	-0.1902300	-0.6057200	-0.2421200	-0.2604700	-0.6951000	-0.2511500	-0.3016600	-0.8789300	-0.2458800	-0.1742300	-0.6033300	-0.2324400	0.2023600	-0.6941700	-0.2332700	0.2490300	-0.9287400	-0.2414100	0.1109500
200	3.3166667	-0.7666500	1.3573400	-0.0545400	-0.7778700	1.3611200	0.1469600	-0.8339100	1.0451900	0.2090000	-0.7208700	0.7550200	0.2454400	-0.7749200	1.3567300	-0.2416300	-0.8509500	1.0461300	-0.2948500	-0.7220900	0.7412600	-0.3176800	-0.6862500	0.8034200	-0.0304300	-0.7187200	0.8041300	0.0893300	-0.7575700	0.3139000	0.0912100	-0.8389300	-0.1816200	0.1413900	-0.7440700	0.7983200	-0.1570800	-0.7733100	0.3130600	-0.1513900	-0.8641000	-0.1948200	-0.1900700	-0.6094900	-0.2442700	-0.2592200	-0.6950600	-0.2510900	-0.3016700	-0.8842000	-0.2472900	-0.1754100	-0.6032700	-0.2324200	0.2023700	-0.6941300	-0.2332500	0.2490300	-0.9287200	-0.2413800	0.1109600
201	3.3333333	-0.7666300	1.3573100	-0.0545500	-0.7718600	1.3610900	0.1446000	-0.8337900	1.0452600	0.2089500	-0.7209200	0.7551100	0.2454500	-0.7749600	1.3567100	-0.2416200	-0.8510100	1.0461700	-0.2948200	-0.7217700	0.7414500	-0.3177700	-0.6861900	0.8034700	-0.0304500	-0.7186800	0.8045700	0.0893000	-0.7574900	0.3138800	0.0912200	-0.8389100	-0.1815900	0.1413800	-0.7440100	0.7984200	-0.1570900	-0.7710400	0.3134600	-0.1498100	-0.8642700	-0.1951900	-0.1900500	-0.6115600	-0.2449700	-0.2585400	-0.6950400	-0.2510200	-0.3016600	-0.8899100	-0.2487700	-0.1776300	-0.6032000	-0.2324000	0.2023700	-0.6940500	-0.2332700	0.2490300	-0.9287500	-0.2413000	0.1109600
202	3.3500000	-0.7666200	1.3573400	-0.0545600	-0.7677600	1.3610700	0.1429800	-0.8336700	1.0452700	0.2089100	-0.7209100	0.7549900	0.2454700	-0.7749700	1.3567700	-0.2416200	-0.8510200	1.0461400	-0.2948200	-0.7213400	0.7415900	-0.3178900	-0.6857300	0.8035600	-0.0303500	-0.7186800	0.8045900	0.0892900	-0.7574600	0.3138600	0.0912200	-0.8389100	-0.1815600	0.1413700	-0.7439900	0.7984900	-0.1570900	-0.7681400	0.3140900	-0.1495200	-0.8641600	-0.1951100	-0.1900800	-0.6095400	-0.2443800	-0.2591700	-0.6950600	-0.2515400	-0.3016100	-0.8887100	-0.2484900	-0.1800200	-0.6031700	-0.2323900	0.2023600	-0.6940400	-0.2332200	0.2490200	-0.9287700	-0.2412700	0.1109600
203	3.3666667	-0.7666400	1.3573300	-0.0545600	-0.7667500	1.3610500	0.1425800	-0.8336300	1.0452700	0.2089000	-0.7208400	0.7550000	0.2454800	-0.7749600	1.3568800	-0.2416200	-0.8509700	1.0462500	-0.2948200	-0.7224000	0.7414600	-0.3175600	-0.6867600	0.8034700	-0.0306100	-0.7187100	0.8045200	0.0892900	-0.7575100	0.3138600	0.0912100	-0.8389100	-0.1815600	0.1413600	-0.7440200	0.7984800	-0.1571000	-0.7702400	0.3137100	-0.1494900	-0.8640800	-0.1949800	-0.1901000	-0.6062700	-0.2433200	-0.2602500	-0.6952600	-0.2525800	-0.3015000	-0.8799100	-0.2462100	-0.1815100	-0.6031900	-0.2323900	0.2023500	-0.6940700	-0.2332200	0.2490100	-0.9287800	-0.2412600	0.1109600
204	3.3833333	-0.7666800	1.3573300	-0.0545700	-0.7668900	1.3610500	0.1426200	-0.8336300	1.0452800	0.2088900	-0.7207100	0.7554200	0.2454500	-0.7749500	1.3570100	-0.2416300	-0.8508800	1.0464300	-0.2948200	-0.7267700	0.7409800	-0.3162400	-0.6912800	0.8030700	-0.0317900	-0.7187500	0.8044800	0.0892900	-0.7576100	0.3137800	0.0912000	-0.8389000	-0.1815800	0.1413700	-0.7440600	0.7984700	-0.1571100	-0.7797900	0.3120600	-0.1492100	-0.8640300	-0.1949600	-0.1901000	-0.6048200	-0.2429200	-0.2607500	-0.6954200	-0.2531900	-0.3014400	-0.8712000	-0.2440000	-0.1818700	-0.6032600	-0.2324000	0.2023300	-0.6941400	-0.2332100	0.2490000	-0.9287200	-0.2412900	0.1109700
